PathFileType	4	(X/Y/Z)	OpenSim_Sub03_CSBaseline_Gyro.trc
DataRate	CameraRate	NumFrames	NumMarkers	Units	OrigDataRate	OrigDataStartFrame	OrigNumFrames
100	100	30	8	m	100	6967	9288
Frame#	Time	torso_imu_offset_imu	pelvis_imu_offset_imu	tibia_r_imu_offset_imu	femur_r_imu_offset_imu	tibia_l_imu_offset_imu	femur_l_imu_offset_imu	toes_r_imu_offset_imu	toes_l_imu_offset_imu
				X1	Y1	Z1	X2	Y2	Z2	X3	Y3	Z3	X4	Y4	Z4	X5	Y5	Z5	X6	Y6	Z6	X7	Y7	Z7	X8		Y8	Z8	

6967	69.66000000	0.20643973	0.02065003	0.07699472	0.31631316	-0.09930366	0.08646140	0.54668272	0.72974404	2.11188762	0.64566610	-0.31499498	-0.75910861	0.31639988	0.15335485	1.00636926	0.13214523	0.08159896	0.46498724	-0.21546952	1.46383633	0.72013765	-0.07920873	-0.86377621	0.32450200
6968	69.67000000	0.20726463	0.03623364	0.07148896	0.30134845	-0.11263072	0.07802552	0.33121149	0.54789701	1.77691769	0.61582543	-0.25088558	-0.60618388	0.29877626	0.15384999	1.05509423	0.13464813	0.09267826	0.46658412	-0.20534400	0.88588632	0.63272793	-0.06752357	-0.92328030	0.33897716
6969	69.68000000	0.21357057	0.05664327	0.06783236	0.27396581	-0.11954039	0.07227282	0.16818551	0.41670057	1.35529079	0.52998370	-0.25206275	-0.38784280	0.31031964	0.18513347	1.12930567	0.15629382	0.12161938	0.46826195	-0.04682957	0.28643379	0.43118723	-0.05959758	-0.99234825	0.34549019
6970	69.69000000	0.21396623	0.08286651	0.05686593	0.24832826	-0.11170614	0.06042862	0.02602025	0.23770931	0.83827110	0.29019323	-0.29454251	-0.22292489	0.32295676	0.21690381	1.19440832	0.19133491	0.15934427	0.43724182	0.12824628	-0.38320714	0.00517019	-0.03517029	-1.04391653	0.32403300
6971	69.70000000	0.20984702	0.11268453	0.04014559	0.22760348	-0.10376311	0.04977037	-0.06297200	-0.01743944	0.27651284	0.00915881	-0.26671519	-0.05623372	0.34927875	0.26538885	1.25170939	0.19912122	0.18844349	0.40202791	0.37769927	-1.19784298	-0.62182089	-0.00624327	-1.11950026	0.29190034
6972	69.71000000	0.20569212	0.14515817	0.02093089	0.22531573	-0.11077904	0.04133489	0.08377768	-0.23481576	-0.30497324	-0.21575138	-0.20360635	0.05829294	0.37013894	0.30354219	1.31208782	0.16235411	0.21413889	0.36423605	0.41250201	-2.03301688	-1.41638885	0.03459422	-1.20750548	0.25888269
6973	69.72000000	0.20499268	0.18008092	-0.00726053	0.23122258	-0.11128514	0.03995772	0.32875746	-0.48999413	-0.87787311	-0.38703847	-0.20653155	0.12464584	0.36428349	0.33098809	1.39047899	0.11807404	0.24951150	0.33091947	-0.33199184	-2.21148135	-1.78868200	0.04814390	-1.32791032	0.21820728
6974	69.73000000	0.20610522	0.19339574	-0.04155112	0.24174293	-0.09798144	0.04979255	0.54976444	-0.78415362	-1.42944141	-0.53605339	-0.33109136	0.01504115	0.37934508	0.38981181	1.47308121	0.09431142	0.29181762	0.27618667	-0.18685751	-1.80616125	-1.49314898	0.15501467	-1.47246761	0.12021400
6975	69.74000000	0.20424708	0.17258251	-0.07386608	0.22390380	-0.06085983	0.09468077	0.24555668	-0.97738496	-1.56960456	-0.64691446	-0.43800260	-0.22822934	0.38070216	0.42306998	1.55962993	0.06441111	0.34548109	0.23890368	1.34048585	-1.55814683	-1.49394395	0.26357753	-1.66015823	0.00507369
6976	69.75000000	0.19522223	0.13463571	-0.09991332	0.11166055	-0.02513527	0.18499843	-0.69331762	-1.03443569	-0.94661685	-0.78558068	-0.43998776	-0.27116622	0.42032704	0.53522200	1.62806730	-0.02511057	0.39947962	0.19470314	1.89339950	-1.80228444	-1.48044678	0.27603675	-1.89275467	-0.10447396
6977	69.76000000	0.17223723	0.11792892	-0.10006925	-0.09353579	-0.05687323	0.30766122	0.01488960	-0.79138091	-0.69483966	-1.01188675	-0.48142127	-0.11162973	0.38626328	0.58373947	1.67375318	-0.17606165	0.42895433	0.14149127	1.76394521	-1.46624596	-1.17263234	0.39963977	-2.19236033	-0.16989656
6978	69.77000000	0.15345393	0.14441715	-0.07676705	-0.24417306	-0.18739683	0.45576152	1.67486220	-0.50376173	-1.02039929	-1.32101910	-0.53419792	0.14261881	0.60142318	0.56331688	1.69527934	-0.30933399	0.46050532	0.07014944	1.39992324	-0.73934148	-1.01758361	0.47156911	-2.48542774	-0.16030081
6979	69.78000000	0.13713432	0.16796784	-0.07636565	-0.22496757	-0.32950790	0.57872647	1.75218548	-0.67237245	-1.22036226	-1.46466538	-0.62754573	0.34060076	0.96534772	0.59352585	1.73851135	-0.34997689	0.49148438	-0.01174817	1.18017194	-0.51676206	-0.85170471	0.55517233	-2.85576302	-0.12536429
6980	69.79000000	0.10936741	0.17822773	-0.11478006	-0.09031773	-0.44421985	0.59474312	1.17694571	-0.76936162	-1.37157851	-0.88200100	-0.66814960	0.20364072	1.17210714	0.49226982	1.79371526	-0.28201187	0.53315501	-0.12248520	0.70321037	-0.51486318	-0.61286188	0.45452719	-3.28605701	0.02131407
6981	69.80000000	0.05952894	0.18228856	-0.12447384	0.07136306	-0.52118952	0.50333348	0.53211492	-0.72050940	-1.32206548	0.13107987	-0.52326410	-0.28029288	1.30854466	0.47986244	1.85383543	-0.09148376	0.58123029	-0.26220864	0.57924988	-0.23041887	-0.32796186	0.16387261	-3.77091719	0.19868463
6982	69.81000000	0.03276151	0.19036229	-0.12513669	0.19978397	-0.52936342	0.37747530	0.16446730	-0.75281490	-1.21780849	0.48912512	-0.32008375	-0.78237797	1.38459855	0.48818033	1.90427019	0.19355098	0.65281451	-0.44179719	0.22953689	-0.10894385	-0.12984034	0.18482397	-4.28494034	0.31566901
6983	69.82000000	0.03789554	0.19188279	-0.13873740	0.29509886	-0.49010543	0.27191801	0.55242436	-0.68010781	-1.25113740	0.26165723	-0.09141977	-0.95176454	1.38156482	0.46415485	1.97359880	0.49819511	0.74227208	-0.65381904	0.09736924	-0.11981750	-0.02231521	0.01832707	-4.34147836	0.54664871
6984	69.83000000	0.05544926	0.21635520	-0.13905929	0.37144646	-0.42693705	0.23864941	0.57789614	-0.62093945	-1.10679646	0.04864924	-0.01102814	-1.00294157	1.24234020	0.43981449	2.04246027	0.71111165	0.84499267	-0.87133450	0.03529242	-0.11190976	0.01541716	-0.14462298	-4.50915227	0.86970624
6985	69.84000000	0.08608674	0.23703784	-0.12012277	0.47363471	-0.34698363	0.30165559	0.32267629	-0.60249232	-0.95234561	0.13213378	-0.15865407	-1.16776955	0.89933933	0.29676396	2.07629702	0.79901041	0.96037543	-1.08675751	-0.01265937	-0.12609972	0.04478405	-0.23616444	-4.46526485	1.13535861
6986	69.85000000	0.12466500	0.24194056	-0.10980021	0.58290564	-0.27349127	0.41835825	0.25324141	-0.60416120	-0.88469766	0.38035975	-0.27713276	-1.14580686	0.46041392	0.07096787	2.11314948	0.89945156	1.03290953	-1.30466750	-0.03610958	-0.13756140	0.05685898	0.05737155	-4.34417434	1.22717767
6987	69.86000000	0.17438284	0.23471341	-0.10438413	0.67251379	-0.18643855	0.49954317	0.38539810	-0.53962169	-0.80622512	0.55293852	-0.34382107	-1.23141092	0.24253397	-0.11091050	2.19852511	1.04876930	1.06389117	-1.49558509	-0.01105566	-0.13005253	0.04098489	0.35666996	-4.19194812	1.35259023
6988	69.87000000	0.22850563	0.20793354	-0.09527641	0.70516763	-0.10951131	0.53109751	0.55167353	-0.41230299	-0.70178585	0.55987634	-0.35270440	-1.26967787	0.31357634	-0.17484865	2.29283532	1.01910933	1.06283427	-1.64563949	0.02742061	-0.11271183	0.01154095	0.67536853	-4.06963317	1.43312841
6989	69.88000000	0.27135919	0.15557592	-0.07886655	0.67758753	-0.03514290	0.51945839	0.44568716	-0.47570124	-0.60186227	0.37118538	-0.31835581	-1.27109956	0.57153971	-0.18881947	2.31250681	0.90728220	1.01900375	-1.78376601	0.03679415	-0.10104461	-0.01096480	1.02425612	-3.98676142	1.47894966
6990	69.89000000	0.31086150	0.08287269	-0.04817150	0.62211032	0.03768602	0.48513326	0.23774235	-0.52314780	-0.55278246	0.14685220	-0.27881712	-1.23746494	0.89240650	-0.19720915	2.24593819	0.86664791	0.95492503	-1.90573475	0.01671762	-0.08865384	-0.01038105	1.24147181	-3.84787551	1.59737086
6991	69.90000000	0.35751301	-0.00272503	-0.00924404	0.53439721	0.08999975	0.45196012	0.17384351	-0.39837199	-0.54307890	-0.04765320	-0.25095391	-1.10856845	1.20758135	-0.18421342	2.10841636	0.86125162	0.85842314	-1.96052900	0.00488128	-0.08474754	-0.01732834	1.48119298	-3.75580962	1.70517319
6992	69.91000000	0.40171855	-0.07225887	0.04481633	0.41789783	0.11333911	0.41829497	-0.00477084	-0.41805218	-0.52076143	-0.23600459	-0.28509127	-1.11635933	1.37697382	-0.15890467	1.93914275	0.82326314	0.73687390	-1.92966017	0.00724519	-0.07437620	-0.03124018	1.63600965	-3.51386864	1.88691644
6993	69.92000000	0.42703697	-0.12175046	0.08460556	0.31824359	0.11408361	0.36006024	-0.08420362	-0.37060686	-0.49825422	-0.38226174	-0.29614512	-1.07865762	1.46053427	-0.18626609	1.73279914	0.75155503	0.58391067	-1.87656059	-0.00950526	-0.05958890	-0.02772048	1.79619282	-2.48674528	2.02234211
6994	69.93000000	0.44850453	-0.15544486	0.11711215	0.22178945	0.10155323	0.27240434	-0.11438674	-0.35727958	-0.46743004	-0.52936921	-0.28595931	-0.99630451	1.53605899	-0.18108687	1.55736891	0.69477092	0.40223157	-1.81124943	-0.01031545	-0.05301636	-0.03381855	2.55669330	-0.68609940	2.10188677
6995	69.94000000	0.45539244	-0.18367858	0.13662419	0.11882883	0.05878924	0.15295896	-0.15471822	-0.35405931	-0.46288694	-0.66806441	-0.25818757	-0.98375276	1.54328801	-0.09981271	1.49084055	0.64050330	0.25755215	-1.71650511	-0.00240710	-0.04429291	-0.03232293	2.55984145	0.71416174	2.31485077
6996	69.95000000	0.46855369	-0.19850906	0.13411950	0.01202140	0.00940911	0.00728003	-0.20632469	-0.33153286	-0.46454485	-0.83246787	-0.21722976	-0.89872233	1.69155438	-0.17167105	1.40817480	0.58948085	0.14077353	-1.65665739	-0.01212583	-0.03785453	-0.04589415	1.77212862	1.29339186	2.52431426
